<?xml version="1.0" encoding="utf-8"?>
<!DOCTYPE svg PUBLIC "-//W3C//DTD SVG 1.0//EN" "http://www.w3.org/TR/2001/REC-SVG-20010904/DTD/svg10.dtd">

<svg version="1.0" 
	id="palavra" 
	xmlns="http://www.w3.org/2000/svg" 
	xmlns:xlink="http://www.w3.org/1999/xlink"
	x="0px"
	y="0px"
	width="297px" 
	height="89.599999999999994px">

<defs>
<path id="D" d="M2.1 28.5 C3.575 28.5 6.525 28.5 8 28.5 C8 41.45 8 67.35 8 80.3 C6.525 80.3 3.575 80.3 2.1 80.3 C2.1 82.65 2.1 87.35 2.1 89.7 C9.85 89.7 25.35 89.7 33.1 89.7 C38.3 89.7 43 89.7 46.9 86.4 C50.3 83.6 51.6 79.7 51.6 72.2 C51.6 60.63333 51.6 46.175 51.6 37.5 C51.6 32.3 51.6 25.9 46.4 21.8 C42.8 19 38.3 19.1 35 19.1 C24.03333 19.1 10.325 19.1 2.1 19.1 C2.1 21.45 2.1 26.15 2.1 28.5 zM19.1 28.5 C22.425 28.5 29.075 28.5 32.4 28.5 C40.1 28.7 40.2 30.7 40.3 38.3 C40.3 49.23333 40.3 62.9 40.3 71.1 C40.1 78.2 40 80.4 32.6 80.3 C28.1 80.3 22.475 80.3 19.1 80.3 C19.1 67.35 19.1 41.45 19.1 28.5 z"/>
<path id="E" d="M38.6 39.8 C41.2 39.8 46.4 39.8 49 39.8 C49 34.625 49 24.275 49 19.1 C37.3 19.1 13.9 19.1 2.2 19.1 C2.2 21.45 2.2 26.15 2.2 28.5 C3.65 28.5 6.55 28.5 8 28.5 C8 41.45 8 67.35 8 80.3 C6.55 80.3 3.65 80.3 2.2 80.3 C2.2 82.65 2.2 87.35 2.2 89.7 C14.05 89.7 37.75 89.7 49.6 89.7 C49.6 84.1 49.6 72.9 49.6 67.3 C47.025 67.3 41.875 67.3 39.3 67.3 C39.3 70.55 39.3 77.05 39.3 80.3 C34.275 80.3 24.225 80.3 19.2 80.3 C19.2 74.85 19.2 63.95 19.2 58.5 C24.425 58.5 34.875 58.5 40.1 58.5 C40.1 56.125 40.1 51.375 40.1 49 C34.875 49 24.425 49 19.2 49 C19.2 43.875 19.2 33.625 19.2 28.5 C24.05 28.5 33.75 28.5 38.6 28.5 C38.6 31.325 38.6 36.975 38.6 39.8 z"/>
<path id="C" d="M20.4 19.1 C16.3 19.3 13 19.4 9.7 22.1 C4.6 26.4 4.6 32.8 4.6 38.4 C4.6 49.66667 4.6 63.75 4.6 72.2 C4.6 75.7 4.6 79.4 6.4 82.9 C9.9 89.4 15.6 89.6 20.4 89.7 C29.13333 89.7 40.05 89.7 46.6 89.7 C46.6 84.2 46.6 73.2 46.6 67.7 C43.9 67.7 38.5 67.7 35.8 67.7 C35.8 70.85 35.8 77.15 35.8 80.3 C32.725 80.3 26.575 80.3 23.5 80.3 C19 80.3 16.5 79.8 16.1 75.6 C16.1 74.9 16 72 16 71.4 C16 60.06667 16 45.9 16 37.4 C16.2 32.4 16.2 31.2 17.8 29.8 C19.2 28.6 20.7 28.6 23.7 28.5 C27.5 28.5 32.25 28.5 35.1 28.5 C35.1 31.35 35.1 37.05 35.1 39.9 C37.825 39.9 43.275 39.9 46 39.9 C46 34.7 46 24.3 46 19.1 C39.6 19.1 26.8 19.1 20.4 19.1 z"/>
<path id="I" d="M25.1 28.5 C25.1 26.15 25.1 21.45 25.1 19.1 C19.35 19.1 7.85 19.1 2.1 19.1 C2.1 21.45 2.1 26.15 2.1 28.5 C3.6 28.5 6.6 28.5 8.1 28.5 C8.1 41.45 8.1 67.35 8.1 80.3 C6.6 80.3 3.6 80.3 2.1 80.3 C2.1 82.65 2.1 87.35 2.1 89.7 C7.85 89.7 19.35 89.7 25.1 89.7 C25.1 87.35 25.1 82.65 25.1 80.3 C23.625 80.3 20.675 80.3 19.2 80.3 C19.2 67.35 19.2 41.45 19.2 28.5 C20.675 28.5 23.625 28.5 25.1 28.5 z"/>
<path id="A" d="M37.3 19.1 C33.075 19.1 24.625 19.1 20.4 19.1 C16.7 34.4 9.3 65 5.6 80.3 C4.2 80.3 1.4 80.3 0 80.3 C0 82.65 0 87.35 0 89.7 C3.85 89.7 11.55 89.7 15.4 89.7 C16.55 84.075 18.85 72.825 20 67.2 C24.025 67.2 32.075 67.2 36.1 67.2 C37.2 72.825 39.4 84.075 40.5 89.7 C44.425 89.7 52.275 89.7 56.2 89.7 C56.2 87.35 56.2 82.65 56.2 80.3 C54.825 80.3 52.075 80.3 50.7 80.3 C47.35 65 40.65 34.4 37.3 19.1 zM28.4 26.4 C29.9 34.3 32.9 50.1 34.4 58 C31.25 58 24.95 58 21.8 58 C23.45 50.1 26.75 34.3 28.4 26.4 z"/>
</defs>

<g id="DECIDA" fill="#000">
<use xlink:href="#D"/>
<use xlink:href="#E" x="56px"/>
<use xlink:href="#C" x="108px"/>
<use xlink:href="#I" x="158px"/>
<use xlink:href="#D" x="185px"/>
<use xlink:href="#A" x="241px"/>
</g>

</svg>