<?xml version="1.0" standalone="no"?>
<!DOCTYPE svg PUBLIC "-//W3C//DTD SVG 1.1//EN" "http://www.w3.org/Graphics/SVG/1.1/DTD/svg11.dtd" >
<svg xmlns="http://www.w3.org/2000/svg" xmlns:xlink="http://www.w3.org/1999/xlink" version="1.1">
<!-- <path d="M 283,800 Q 317,771 366,741.5 415,712 480,681 v 72 q -68,58 -124,123 -56,65 -98,147 H 222 Q 180,941 124,876 68,811 0,753 v -72 q 65,31 114,60.5 49,29.5 83,58.5 v -989 h 86 z"/> -->
<!-- <path d="M283,800Q317,771,366,741.5Q415,712,480,681V753Q412,811,356,876Q300,941,258,1023H222Q180,941,124,876Q68,811,0,753V681Q65,712,114,741.5Q163,771,197,800V-189H283Z"/> -->
<path d="M283,800q34,-29,83,-58.5q49,-29.5,114,-60.5v72q-68,58,-124,123q-56,65,-98,147h-36q-42,-82,-98,-147q-56,-65,-124,-123v-72q65,31,114,60.5q49,29.5,83,58.5v-989h86z"/>
</svg>