<?xml version="1.0" encoding="UTF-8" standalone="no"?>
<!-- Created with Inkscape (http://www.inkscape.org/) -->

<svg
   xmlns:dc="http://purl.org/dc/elements/1.1/"
   xmlns:cc="http://creativecommons.org/ns#"
   xmlns:rdf="http://www.w3.org/1999/02/22-rdf-syntax-ns#"
   xmlns:svg="http://www.w3.org/2000/svg"
   xmlns="http://www.w3.org/2000/svg"
   xmlns:sodipodi="http://sodipodi.sourceforge.net/DTD/sodipodi-0.dtd"
   xmlns:inkscape="http://www.inkscape.org/namespaces/inkscape"
   width="210mm"
   height="297mm"
   viewBox="0 0 210 297"
   version="1.1"
   id="svg61"
   inkscape:version="0.92.3 (2405546, 2018-03-11)"
   sodipodi:docname="brochura.svg">
  <defs
     id="defs55" />
  <sodipodi:namedview
     id="base"
     pagecolor="#ffffff"
     bordercolor="#666666"
     borderopacity="1.0"
     inkscape:pageopacity="0.0"
     inkscape:pageshadow="2"
     inkscape:zoom="0.49497475"
     inkscape:cx="161.2023"
     inkscape:cy="375.23906"
     inkscape:document-units="mm"
     inkscape:current-layer="layer1"
     showgrid="false"
     inkscape:window-width="1366"
     inkscape:window-height="704"
     inkscape:window-x="0"
     inkscape:window-y="27"
     inkscape:window-maximized="1" />
  <metadata
     id="metadata58">
    <rdf:RDF>
      <cc:Work
         rdf:about="">
        <dc:format>image/svg+xml</dc:format>
        <dc:type
           rdf:resource="http://purl.org/dc/dcmitype/StillImage" />
        <dc:title></dc:title>
      </cc:Work>
    </rdf:RDF>
  </metadata>
  <g
     inkscape:label="Camada 1"
     inkscape:groupmode="layer"
     id="layer1">
    <path
       inkscape:connector-curvature="0"
       id="path67"
       style="font-style:normal;font-variant:normal;font-weight:normal;font-stretch:normal;font-size:22.64968872px;line-height:1.25;font-family:'Liberation Serif';-inkscape-font-specification:'Liberation Serif, Normal';font-variant-ligatures:normal;font-variant-caps:normal;font-variant-numeric:normal;font-feature-settings:normal;text-align:start;letter-spacing:0px;word-spacing:0px;writing-mode:lr-tb;text-anchor:start;fill:#000000;fill-opacity:1;stroke:none;stroke-width:0.56624222"
       d="m 113.59392,130.22334 q 0,1.36031 0.85158,1.97963 0.85157,0.61933 2.76485,0.61933 h 2.2893 v -5.60712 h -2.42201 q -1.79163,0 -2.63214,0.7078 -0.85158,0.7078 -0.85158,2.30036 z m -1.117,-7.01167 q 0,1.55938 1.03959,2.27824 1.03958,0.72992 3.32888,0.72992 h 2.65426 v -6.23751 q -1.5262,-0.0664 -3.25147,-0.0664 -1.89116,0 -2.83121,0.79628 -0.94005,0.80734 -0.94005,2.49943 z m 11.05942,-4.2247 v 0.58615 l -1.90222,0.2986 v 13.07224 l 1.90222,0.28754 v 0.58615 h -6.77942 q -2.82016,0 -4.12517,-0.84052 -1.30501,-0.82945 -1.30501,-2.6432 0,-1.30501 0.80734,-2.22294 0.79628,-0.91793 2.24506,-1.22759 -2.00175,-0.21013 -3.09664,-1.1723 -1.09488,-0.95111 -1.09488,-2.45519 0,-2.13447 1.48196,-3.24041 1.47091,-1.09489 4.30212,-1.09489 l 4.73343,0.0664 z" />
    <path
       inkscape:connector-curvature="0"
       id="path69"
       style="font-style:normal;font-variant:normal;font-weight:normal;font-stretch:normal;font-size:22.64968872px;line-height:1.25;font-family:'Liberation Serif';-inkscape-font-specification:'Liberation Serif, Normal';font-variant-ligatures:normal;font-variant-caps:normal;font-variant-numeric:normal;font-feature-settings:normal;text-align:start;letter-spacing:0px;word-spacing:0px;writing-mode:lr-tb;text-anchor:start;fill:#000000;fill-opacity:1;stroke:none;stroke-width:0.56624222"
       d="m 101.71611,129.65931 v -2.80909 h 0.47555 l 0.64145,1.21653 q 0.55297,0 1.31607,-0.15483 0.75204,-0.14377 1.30501,-0.38708 v -7.76371 l -1.78057,-0.27649 v -0.49767 h 4.9325 v 0.49767 l -1.31607,0.27649 v 8.84753 l 1.31607,0.27649 v 0.49767 h -3.03028 l -0.0995,-1.29395 q -0.66356,0.55297 -1.79162,1.06171 -1.13912,0.50873 -1.80269,0.50873 z" />
    <path
       inkscape:connector-curvature="0"
       id="path71"
       style="font-style:normal;font-variant:normal;font-weight:normal;font-stretch:normal;font-size:22.64968872px;line-height:1.25;font-family:'Liberation Serif';-inkscape-font-specification:'Liberation Serif, Normal';font-variant-ligatures:normal;font-variant-caps:normal;font-variant-numeric:normal;font-feature-settings:normal;text-align:start;letter-spacing:0px;word-spacing:0px;writing-mode:lr-tb;text-anchor:start;fill:#000000;fill-opacity:1;stroke:none;stroke-width:0.56624222"
       d="m 91.032714,124.24019 q 0,-5.47441 4.866144,-5.47441 2.344596,0 3.539014,1.40455 1.194418,1.40454 1.194418,4.06986 0,2.63215 -1.194418,4.02563 -1.194418,1.39349 -3.62749,1.39349 -2.366715,0 -3.572192,-1.37137 -1.205476,-1.36031 -1.205476,-4.04775 z m 1.990695,0 q 0,2.38884 0.696743,3.4616 0.696744,1.07277 2.178706,1.07277 1.448783,0 2.101289,-1.02853 0.641446,-1.02853 0.641446,-3.50584 0,-2.51048 -0.652505,-3.56113 -0.663565,-1.03958 -2.09023,-1.03958 -1.459844,0 -2.167646,1.08382 -0.707803,1.08382 -0.707803,3.51689 z" />
    <path
       inkscape:connector-curvature="0"
       id="path73"
       style="font-style:normal;font-variant:normal;font-weight:normal;font-stretch:normal;font-size:22.64968872px;line-height:1.25;font-family:'Liberation Serif';-inkscape-font-specification:'Liberation Serif, Normal';font-variant-ligatures:normal;font-variant-caps:normal;font-variant-numeric:normal;font-feature-settings:normal;text-align:start;letter-spacing:0px;word-spacing:0px;writing-mode:lr-tb;text-anchor:start;fill:#000000;fill-opacity:1;stroke:none;stroke-width:0.56624222"
       d="m 87.551629,114.77779 q 0.514555,0.43292 0.964247,1.30259 0.43894,0.87229 0.673335,1.83964 1.19019,4.91201 -4.151765,6.20638 -2.525878,0.61202 -4.182276,-0.30664 -1.669759,-0.92681 -2.234907,-3.25921 -0.351586,-1.45104 -0.435082,-3.25152 l 2.816081,-0.68233 0.14324,0.59116 -1.672245,0.8945 q -0.289021,1.01453 0.01309,2.26133 0.697964,2.88058 5.083319,1.818 2.278651,-0.55212 3.04581,-1.65975 0.753799,-1.11575 0.308455,-2.95373 -0.380236,-1.56927 -1.016202,-2.64415 z" />
    <path
       inkscape:connector-curvature="0"
       id="path75"
       style="font-style:normal;font-variant:normal;font-weight:normal;font-stretch:normal;font-size:22.64968872px;line-height:1.25;font-family:'Liberation Serif';-inkscape-font-specification:'Liberation Serif, Normal';font-variant-ligatures:normal;font-variant-caps:normal;font-variant-numeric:normal;font-feature-settings:normal;text-align:start;letter-spacing:0px;word-spacing:0px;writing-mode:lr-tb;text-anchor:start;fill:#000000;fill-opacity:1;stroke:none;stroke-width:0.56624222"
       d="m 78.051526,105.33221 q 1.064545,0.43551 1.506083,0.69978 -0.118168,-0.90867 -0.04419,-1.96577 0.07817,-1.06734 0.341987,-1.71221 0.510876,-1.24879 1.497259,-1.58611 0.986382,-0.33732 2.368239,0.22799 l 6.325841,2.58789 0.73328,-1.06221 0.460615,0.18843 -1.695942,4.14558 -0.460616,-0.18844 0.267536,-1.38419 -6.203013,-2.53763 q -1.760588,-0.72024 -2.455716,0.97892 -0.393626,0.96219 -0.645341,2.42455 l 7.666752,3.13644 0.787718,-1.19529 0.460617,0.18845 -1.725257,4.21722 -0.460615,-0.18843 0.24241,-1.32277 -13.122538,-5.3684 -0.831913,1.33254 -0.46062,-0.18845 1.281378,-3.13221 z" />
    <path
       inkscape:connector-curvature="0"
       id="path77"
       style="font-style:normal;font-variant:normal;font-weight:normal;font-stretch:normal;font-size:22.64968872px;line-height:1.25;font-family:'Liberation Serif';-inkscape-font-specification:'Liberation Serif, Normal';font-variant-ligatures:normal;font-variant-caps:normal;font-variant-numeric:normal;font-feature-settings:normal;text-align:start;letter-spacing:0px;word-spacing:0px;writing-mode:lr-tb;text-anchor:start;fill:#000000;fill-opacity:1;stroke:none;stroke-width:0.56624222"
       d="m 94.294438,99.369331 q 0.283634,1.880959 2.03336,1.617109 1.356042,-0.20448 2.485972,-0.72159 l -1.22523,-8.125282 -1.594098,-0.03924 -0.07421,-0.492106 3.357284,-0.506252 1.434664,9.51413 1.34258,0.0772 0.0742,0.4921 -2.996414,0.45184 -0.21284,-0.81792 q -0.71213,0.54357 -1.681323,1.01406 -0.970854,0.45957 -1.65981,0.56346 -2.624588,0.39577 -3.079721,-2.622507 l -1.012504,-6.714571 -1.353521,-0.07551 -0.07421,-0.492107 3.127634,-0.471623 z" />
    <path
       inkscape:connector-curvature="0"
       id="path79"
       style="font-style:normal;font-variant:normal;font-weight:normal;font-stretch:normal;font-size:22.64968872px;line-height:1.25;font-family:'Liberation Serif';-inkscape-font-specification:'Liberation Serif, Normal';font-variant-ligatures:normal;font-variant-caps:normal;font-variant-numeric:normal;font-feature-settings:normal;text-align:start;letter-spacing:0px;word-spacing:0px;writing-mode:lr-tb;text-anchor:start;fill:#000000;fill-opacity:1;stroke:none;stroke-width:0.56624222"
       d="m 112.25981,90.229161 v 2.80909 h -0.47555 l -0.64145,-1.21653 q -0.55297,0 -1.31607,0.15483 -0.75204,0.14377 -1.30501,0.38708 v 7.763709 l 1.78057,0.27649 v 0.49767 h -4.93251 v -0.49767 l 1.31608,-0.27649 v -8.847529 l -1.31608,-0.27649 v -0.49767 h 3.03029 l 0.0995,1.29395 q 0.66357,-0.55297 1.79163,-1.06171 1.13912,-0.50873 1.80268,-0.50873 z" />
    <path
       inkscape:connector-curvature="0"
       id="path81"
       style="font-style:normal;font-variant:normal;font-weight:normal;font-stretch:normal;font-size:22.64968872px;line-height:1.25;font-family:'Liberation Serif';-inkscape-font-specification:'Liberation Serif, Normal';font-variant-ligatures:normal;font-variant-caps:normal;font-variant-numeric:normal;font-feature-settings:normal;text-align:start;letter-spacing:0px;word-spacing:0px;writing-mode:lr-tb;text-anchor:start;fill:#000000;fill-opacity:1;stroke:none;stroke-width:0.56624222"
       d="m 119.32453,90.840365 q 1.70315,0 2.49943,0.69674 0.80734,0.69675 0.80734,2.13447 v 7.022735 l 1.29395,0.27649 v 0.49767 h -2.85333 l -0.21013,-1.03959 q -1.26077,1.26078 -3.21829,1.26078 -2.66532,0 -2.66532,-3.096645 0,-1.03958 0.39814,-1.71421 0.4092,-0.68568 1.29395,-1.03958 0.88476,-0.36497 2.56579,-0.39814 l 1.55937,-0.0442 v -1.62574 q 0,-1.07276 -0.39813,-1.58149 -0.38708,-0.50874 -1.20548,-0.50874 -1.10594,0 -2.02387,0.5198 l -0.37602,1.29395 h -0.61933 v -2.26718 q 1.79162,-0.38708 3.15193,-0.38708 z m 1.4709,5.33064 -1.44878,0.0442 q -1.48196,0.0553 -2.01281,0.57509 -0.5198,0.51979 -0.5198,1.73632 0,1.946465 1.5815,1.946465 0.75204,0 1.29395,-0.16589 0.55297,-0.17695 1.10594,-0.442385 z" />
    <text
       xml:space="preserve"
       style="font-style:normal;font-weight:normal;font-size:10.58333302px;line-height:1.25;font-family:sans-serif;letter-spacing:0px;word-spacing:0px;fill:#000000;fill-opacity:1;stroke:none;stroke-width:0.26458332"
       x="97.553383"
       y="108.57498"
       id="text106"><tspan
         sodipodi:role="line"
         id="tspan104"
         x="97.553383"
         y="108.57498"
         style="stroke-width:0.26458332">_____</tspan></text>
    <path
       inkscape:connector-curvature="0"
       id="path151"
       style="font-style:normal;font-variant:normal;font-weight:normal;font-stretch:normal;font-size:40px;line-height:1.25;font-family:'DejaVu Serif';-inkscape-font-specification:'DejaVu Serif, Normal';font-variant-ligatures:normal;font-variant-caps:normal;font-variant-numeric:normal;font-feature-settings:normal;text-align:start;letter-spacing:0px;word-spacing:0px;writing-mode:lr-tb;text-anchor:start;fill:#000000;fill-opacity:1;stroke:none;stroke-width:0.66933942"
       d="m 145.72771,221.22861 h -3.90883 q -2.35315,0 -3.43821,1.0197 -1.08506,1.01969 -1.08506,3.24211 0,2.20935 1.08506,3.21597 1.07198,1.01969 3.43821,1.01969 h 3.90883 z m 0,9.88321 h -3.32054 q -2.14399,0 -3.12446,0.82361 -0.99355,0.8236 -0.99355,2.60153 0,1.79101 0.99355,2.60154 0.98047,0.8236 3.12446,0.8236 h 3.32054 z m 5.13771,-11.26895 v 1.38574 h -2.48388 v 16.73349 h 2.48388 v 1.39881 h -9.63483 q -2.95451,0 -4.44483,-1.21579 -1.5034,-1.20272 -1.5034,-3.60816 0,-1.73872 1.04584,-2.77148 1.03277,-1.03277 3.03295,-1.26809 -2.48388,-0.31375 -3.76504,-1.59491 -1.29423,-1.26808 -1.29423,-3.41206 0,-2.90221 1.83023,-4.27488 1.83022,-1.37267 5.71291,-1.37267 z" />
    <path
       inkscape:connector-curvature="0"
       id="path153"
       style="font-style:normal;font-variant:normal;font-weight:normal;font-stretch:normal;font-size:40px;line-height:1.25;font-family:'DejaVu Serif';-inkscape-font-specification:'DejaVu Serif, Normal';font-variant-ligatures:normal;font-variant-caps:normal;font-variant-numeric:normal;font-feature-settings:normal;text-align:start;letter-spacing:0px;word-spacing:0px;writing-mode:lr-tb;text-anchor:start;fill:#000000;fill-opacity:1;stroke:none;stroke-width:0.66933942"
       d="m 119.88232,233.76565 v -3.47743 h 1.38575 q 0.0653,1.03277 0.57521,1.54262 0.50985,0.50985 1.49032,0.50985 1.77794,0 2.73227,-1.22887 0.94125,-1.22886 0.94125,-3.52971 v -6.3535 h -2.78455 v -1.38574 h 7.36012 v 1.38574 h -2.17013 v 11.13823 h 2.30086 v 1.37266 h -4.7063 v -2.4708 q -0.70593,1.45111 -1.81714,2.14398 -1.11122,0.70594 -2.70612,0.70594 -0.58829,0 -1.22887,-0.0915 -0.65365,-0.0915 -1.37267,-0.26146 z" />
    <path
       inkscape:connector-curvature="0"
       id="path155"
       style="font-style:normal;font-variant:normal;font-weight:normal;font-stretch:normal;font-size:40px;line-height:1.25;font-family:'DejaVu Serif';-inkscape-font-specification:'DejaVu Serif, Normal';font-variant-ligatures:normal;font-variant-caps:normal;font-variant-numeric:normal;font-feature-settings:normal;text-align:start;letter-spacing:0px;word-spacing:0px;writing-mode:lr-tb;text-anchor:start;fill:#000000;fill-opacity:1;stroke:none;stroke-width:0.66933942"
       d="m 111.81626,220.75798 q -1.93481,0 -2.91529,1.52955 -0.99355,1.52955 -0.99355,4.51019 0,2.98066 0.99355,4.49713 0.98048,1.52955 2.91529,1.52955 1.93481,0 2.92836,-1.52955 0.98048,-1.51647 0.98048,-4.49713 0,-2.98064 -0.99355,-4.51019 -0.99355,-1.52955 -2.91529,-1.52955 z m 0,-1.29423 q 3.03294,0 4.87624,2.00018 1.8433,2.01324 1.8433,5.33379 0,3.32056 -1.83022,5.32073 -1.8433,2.00017 -4.88932,2.00017 -3.04602,0 -4.87624,-2.00017 -1.8433,-2.00017 -1.8433,-5.32073 0,-3.32055 1.8433,-5.33379 1.83022,-2.00018 4.87624,-2.00018 z" />
    <path
       inkscape:connector-curvature="0"
       id="path157"
       style="font-style:normal;font-variant:normal;font-weight:normal;font-stretch:normal;font-size:40px;line-height:1.25;font-family:'DejaVu Serif';-inkscape-font-specification:'DejaVu Serif, Normal';font-variant-ligatures:normal;font-variant-caps:normal;font-variant-numeric:normal;font-feature-settings:normal;text-align:start;letter-spacing:0px;word-spacing:0px;writing-mode:lr-tb;text-anchor:start;fill:#000000;fill-opacity:1;stroke:none;stroke-width:0.66933942"
       d="m 98.109459,210.53278 q 2.279951,0.0308 3.722741,1.20458 1.44279,1.1738 1.92694,3.42313 0.63819,2.96505 -0.92935,5.18795 -1.58051,2.2255 -4.826508,2.92437 -3.258989,0.70145 -5.589472,-0.68245 -2.343253,-1.38115 -2.981444,-4.34619 -0.277829,-1.29082 -0.246185,-2.63488 0.01887,-1.3413 0.354487,-2.76414 l 3.476254,-0.74823 0.294337,1.36749 q -1.731488,0.65351 -2.354114,1.73696 -0.625391,1.07068 -0.265033,2.7449 0.409869,1.90429 2.101461,2.55649 1.678822,0.65491 4.618281,0.0223 2.939496,-0.63269 4.215696,-1.91032 1.27347,-1.2904 0.86084,-3.20745 -0.32735,-1.52086 -1.31505,-2.25772 -0.98767,-0.73688 -2.656758,-0.72529 z" />
    <path
       inkscape:connector-curvature="0"
       id="path159"
       style="font-style:normal;font-variant:normal;font-weight:normal;font-stretch:normal;font-size:40px;line-height:1.25;font-family:'DejaVu Serif';-inkscape-font-specification:'DejaVu Serif, Normal';font-variant-ligatures:normal;font-variant-caps:normal;font-variant-numeric:normal;font-feature-settings:normal;text-align:start;letter-spacing:0px;word-spacing:0px;writing-mode:lr-tb;text-anchor:start;fill:#000000;fill-opacity:1;stroke:none;stroke-width:0.66933942"
       d="m 101.42238,208.05724 -1.19625,-0.69948 1.0954,-1.87338 -15.167541,-8.86881 -1.161396,1.98621 -1.19625,-0.69947 2.375578,-4.06274 7.696627,4.5004 q -0.882281,-1.28822 -0.968475,-2.56527 -0.07959,-1.28834 0.633087,-2.50716 1.161395,-1.98622 2.848923,-2.25642 1.687529,-0.27021 4.102607,1.14193 l 6.43267,3.76133 1.08219,-1.85079 1.19626,0.69947 -3.3522,5.73297 -1.19624,-0.69946 1.0492,-1.79438 -5.778145,-3.37861 q -2.200634,-1.28677 -3.318633,-1.21359 -1.122696,0.0553 -1.927752,1.43212 -0.844654,1.44452 -0.237231,2.81434 0.607416,1.3698 2.616212,2.54439 l 5.484709,3.20703 1.05582,-1.80565 1.19624,0.69947 z" />
    <path
       inkscape:connector-curvature="0"
       id="path161"
       style="font-style:normal;font-variant:normal;font-weight:normal;font-stretch:normal;font-size:40px;line-height:1.25;font-family:'DejaVu Serif';-inkscape-font-specification:'DejaVu Serif, Normal';font-variant-ligatures:normal;font-variant-caps:normal;font-variant-numeric:normal;font-feature-settings:normal;text-align:start;letter-spacing:0px;word-spacing:0px;writing-mode:lr-tb;text-anchor:start;fill:#000000;fill-opacity:1;stroke:none;stroke-width:0.66933942"
       d="m 115.62054,179.74425 h 4.49712 v 12.51089 h 2.27471 v 1.38574 h -4.68014 v -2.45773 q -0.66673,1.38574 -1.72565,2.11783 -1.05891,0.71902 -2.45773,0.71902 -2.31392,0 -3.41206,-1.3073 -1.08506,-1.32038 -1.08506,-4.13108 v -7.43856 h -2.17013 v -1.39881 h 4.58864 v 8.0922 q 0,2.53617 0.61443,3.47743 0.62751,0.94126 2.22242,0.94126 1.67335,0 2.54924,-1.22887 0.8759,-1.22886 0.8759,-3.56894 v -6.31427 h -2.09169 z" />
    <path
       inkscape:connector-curvature="0"
       id="path163"
       style="font-style:normal;font-variant:normal;font-weight:normal;font-stretch:normal;font-size:40px;line-height:1.25;font-family:'DejaVu Serif';-inkscape-font-specification:'DejaVu Serif, Normal';font-variant-ligatures:normal;font-variant-caps:normal;font-variant-numeric:normal;font-feature-settings:normal;text-align:start;letter-spacing:0px;word-spacing:0px;writing-mode:lr-tb;text-anchor:start;fill:#000000;fill-opacity:1;stroke:none;stroke-width:0.66933942"
       d="m 136.1975,179.7181 v 3.47743 h -1.38575 q -0.0653,-1.03277 -0.57521,-1.54262 -0.50985,-0.50985 -1.49032,-0.50985 -1.77794,0 -2.73227,1.22887 -0.94125,1.22886 -0.94125,3.52971 v 6.3535 h 2.78455 v 1.38574 h -7.36012 v -1.38574 h 2.17013 v -11.13823 h -2.30086 v -1.37266 h 4.7063 v 2.4708 q 0.70593,-1.45111 1.81714,-2.14398 1.11122,-0.70594 2.70612,-0.70594 0.58829,0 1.22887,0.0915 0.65365,0.0915 1.37267,0.26146 z" />
    <path
       inkscape:connector-curvature="0"
       id="path165"
       style="font-style:normal;font-variant:normal;font-weight:normal;font-stretch:normal;font-size:40px;line-height:1.25;font-family:'DejaVu Serif';-inkscape-font-specification:'DejaVu Serif, Normal';font-variant-ligatures:normal;font-variant-caps:normal;font-variant-numeric:normal;font-feature-settings:normal;text-align:start;letter-spacing:0px;word-spacing:0px;writing-mode:lr-tb;text-anchor:start;fill:#000000;fill-opacity:1;stroke:none;stroke-width:0.66933942"
       d="m 146.8651,189.27449 v -2.94143 h -3.09832 q -1.791,0 -2.66689,0.7713 -0.8759,0.77131 -0.8759,2.36622 0,1.45111 0.88897,2.30086 0.88896,0.84975 2.40544,0.84975 1.5034,0 2.41851,-0.92819 0.92819,-0.92819 0.92819,-2.41851 z m 2.40543,-4.31411 v 7.29476 h 2.14398 v 1.38574 h -4.54941 v -1.5034 q -0.79746,0.9674 -1.8433,1.42496 -1.04585,0.45756 -2.44466,0.45756 -2.31393,0 -3.67352,-1.22887 -1.3596,-1.22886 -1.3596,-3.32055 0,-2.15705 1.55569,-3.34669 1.55569,-1.18965 4.39254,-1.18965 h 3.37285 v -0.95433 q 0,-1.58184 -0.96741,-2.44466 -0.95433,-0.8759 -2.69304,-0.8759 -1.43804,0 -2.28779,0.65366 -0.84974,0.65365 -1.05891,1.93481 h -1.24194 v -2.81071 q 1.25501,-0.53599 2.43158,-0.79745 1.18965,-0.27453 2.31393,-0.27453 2.88914,0 4.39254,1.43803 1.51647,1.42496 1.51647,4.15722 z" />
    <path
       inkscape:connector-curvature="0"
       id="path169"
       style="font-style:normal;font-variant:normal;font-weight:normal;font-stretch:normal;font-size:40px;line-height:1.25;font-family:'DejaVu Serif';-inkscape-font-specification:'DejaVu Serif, Normal';font-variant-ligatures:normal;font-variant-caps:normal;font-variant-numeric:normal;font-feature-settings:normal;text-align:start;letter-spacing:0px;word-spacing:0px;writing-mode:lr-tb;text-anchor:start;fill:#000000;fill-opacity:1;stroke:none;stroke-width:0.66933942"
       d="m 134.41334,206.77527 v 1.04585 h -13.38678 v -1.04585 z" />
    <path
       inkscape:connector-curvature="0"
       id="path171"
       style="font-style:normal;font-variant:normal;font-weight:normal;font-stretch:normal;font-size:40px;line-height:1.25;font-family:'DejaVu Serif';-inkscape-font-specification:'DejaVu Serif, Normal';font-variant-ligatures:normal;font-variant-caps:normal;font-variant-numeric:normal;font-feature-settings:normal;text-align:start;letter-spacing:0px;word-spacing:0px;writing-mode:lr-tb;text-anchor:start;fill:#000000;fill-opacity:1;stroke:none;stroke-width:0.66933942"
       d="m 147.80013,206.77527 v 1.04585 h -13.38679 v -1.04585 z" />
    <path
       inkscape:connector-curvature="0"
       id="path175"
       style="font-style:normal;font-variant:normal;font-weight:normal;font-stretch:normal;font-size:40px;line-height:1.25;font-family:'DejaVu Serif';-inkscape-font-specification:'DejaVu Serif, Normal';font-variant-ligatures:normal;font-variant-caps:normal;font-variant-numeric:normal;font-feature-settings:normal;text-align:start;letter-spacing:0px;word-spacing:0px;writing-mode:lr-tb;text-anchor:start;fill:#000000;fill-opacity:1;stroke:none;stroke-width:0.66933942"
       d="m 92.738414,286.33788 v 1.04585 H 79.351626 v -1.04585 z" />
    <path
       inkscape:connector-curvature="0"
       id="path177"
       style="font-style:normal;font-variant:normal;font-weight:normal;font-stretch:normal;font-size:40px;line-height:1.25;font-family:'DejaVu Serif';-inkscape-font-specification:'DejaVu Serif, Normal';font-variant-ligatures:normal;font-variant-caps:normal;font-variant-numeric:normal;font-feature-settings:normal;text-align:start;letter-spacing:0px;word-spacing:0px;writing-mode:lr-tb;text-anchor:start;fill:#000000;fill-opacity:1;stroke:none;stroke-width:0.66933942"
       d="m 106.1252,286.33788 v 1.04585 H 92.738414 v -1.04585 z" />
    <path
       inkscape:connector-curvature="0"
       id="path179"
       style="font-style:normal;font-variant:normal;font-weight:normal;font-stretch:normal;font-size:40px;line-height:1.25;font-family:'DejaVu Serif';-inkscape-font-specification:'DejaVu Serif, Normal';font-variant-ligatures:normal;font-variant-caps:normal;font-variant-numeric:normal;font-feature-settings:normal;text-align:start;letter-spacing:0px;word-spacing:0px;writing-mode:lr-tb;text-anchor:start;fill:#000000;fill-opacity:1;stroke:none;stroke-width:0.66933942"
       d="m 119.51199,286.33788 v 1.04585 H 106.1252 v -1.04585 z" />
    <path
       inkscape:connector-curvature="0"
       id="path181"
       style="font-style:normal;font-variant:normal;font-weight:normal;font-stretch:normal;font-size:40px;line-height:1.25;font-family:'DejaVu Serif';-inkscape-font-specification:'DejaVu Serif, Normal';font-variant-ligatures:normal;font-variant-caps:normal;font-variant-numeric:normal;font-feature-settings:normal;text-align:start;letter-spacing:0px;word-spacing:0px;writing-mode:lr-tb;text-anchor:start;fill:#000000;fill-opacity:1;stroke:none;stroke-width:0.66933942"
       d="m 132.89877,286.33788 v 1.04585 h -13.38678 v -1.04585 z" />
    <path
       inkscape:connector-curvature="0"
       id="path183"
       style="font-style:normal;font-variant:normal;font-weight:normal;font-stretch:normal;font-size:40px;line-height:1.25;font-family:'DejaVu Serif';-inkscape-font-specification:'DejaVu Serif, Normal';font-variant-ligatures:normal;font-variant-caps:normal;font-variant-numeric:normal;font-feature-settings:normal;text-align:start;letter-spacing:0px;word-spacing:0px;writing-mode:lr-tb;text-anchor:start;fill:#000000;fill-opacity:1;stroke:none;stroke-width:0.66933942"
       d="m 146.28556,286.33788 v 1.04585 h -13.38679 v -1.04585 z" />
    <text
       xml:space="preserve"
       style="font-style:normal;font-weight:normal;font-size:10.58333302px;line-height:1.25;font-family:sans-serif;letter-spacing:0px;word-spacing:0px;fill:#000000;fill-opacity:1;stroke:none;stroke-width:0.26458332"
       x="157.95628"
       y="192.25725"
       id="text149"><tspan
         sodipodi:role="line"
         id="tspan147"
         x="157.95628"
         y="192.25725"
         style="stroke-width:0.26458332"> </tspan></text>
  </g>
</svg>
