<?xml version="1.0"?>
<!DOCTYPE svg PUBLIC "-//W3C//DTD SVG 1.1//EN" "http://www.w3.org/Graphics/SVG/1.1/DTD/svg11.dtd" >
<svg xmlns="http://www.w3.org/2000/svg" xmlns:xlink="http://www.w3.org/1999/xlink" version="1.1" viewBox="0 0 500 800">
<!-- <path d="M204,94H460V302H351V188H237c-30,1-45,1-59,13-16,14-16,26-18,76v340c0,6,1,35,1,42,4,42,29,47,74,47,H358V580H466V800H204C156,799,99,797,64,732,46,697,46,660,46,625V287C46,231,46,167,97,124,130,97,163,96,204,94Z"/> -->
<!-- <path d="M204,94H460V302H351V188H237C207,189,192,189,178,201C162,215,162,227,160,277V617C160,623,161,652,161,659C165,701,190,706,235,706H358V580H466V800H204C156,799,99,797,64,732C46,697,46,660,46,625V287C46,231,46,167,97,124C130,97,163,96,204,94Z"/> -->
<path d="M204,94h256v208h-109v-114h-114c-30,1,-45,1,-59,13c-16,14,-16,26,-18,76v340c0,6,1,35,1,42c4,42,29,47,74,47h123v-126h108v220h-262c-48,-1,-105,-3,-140,-68c-18,-35,-18,-72,-18,-107v-338c0,-56,0,-120,51,-163c33,-27,66,-28,107,-30z"/>
</svg>