<?xml version="1.0" standalone="no"?>
<!DOCTYPE svg PUBLIC "-//W3C//DTD SVG 1.1//EN" "http://www.w3.org/Graphics/SVG/1.1/DTD/svg11.dtd" >
<svg xmlns="http://www.w3.org/2000/svg" xmlns:xlink="http://www.w3.org/1999/xlink" version="1.1" viewBox="0 0 562 800">
<!-- <path d="M21,188v-94h329c33,0,78-1,114,27,52,41,52,105,52,157v347c0,75-13,114-47,142-39,33-86,33-138,33H21V706H80V188Zm170,0v518h135c74,1,75-21,77-92V286c-1-76-2-96-79-98z"/> -->
<!-- <path d="M21,188V94H350C383,94,428,93,464,121C516,162,516,226,516,278V625C516,700,503,739,469,767C430,800,383,800,331,800H21V706H80V188ZM191,188V706H326C400,707,401,685,403,614V286C402,210,401,190,324,188Z"/> -->
<path d="M21,188v-94h329c33,0,78,-1,114,27c52,41,52,105,52,157v347c0,75,-13,114,-47,142c-39,33,-86,33,-138,33h-310v-94h59v-518zm170,0v518h135c74,1,75,-21,77,-92v-328c-1,-76,-2,-96,-79,-98z"/>
<!-- <path d="M21,188v-94h329c33,0,78-1,114,27c52,41,52,105,52,157v347c0,75-13,114-47,142c-39,33-86,33-138,33h-310v-94h59v-518zm170,0v518h135c74,1,75-21,77-92v-328c-1-76-2-96-79-98z"/> -->
</svg>