<?xml version="1.0" standalone="no"?>
<!DOCTYPE svg PUBLIC "-//W3C//DTD SVG 1.1//EN" "http://www.w3.org/Graphics/SVG/1.1/DTD/svg11.dtd" >
<svg xmlns="http://www.w3.org/2000/svg" xmlns:xlink="http://www.w3.org/1999/xlink" version="1.1" viewBox="0 -200 500 1000">
  <g transform="matrix(1 0 0 -1 0 800)">
   <path fill="currentColor"
d="M204 706h256v-208h-109v114h-114c-30 -1 -45 -1 -59 -13c-16 -14 -16 -26 -18 -76v-340c0 -6 1 -35 1 -42c4 -42 29 -47 74 -47h123v126h108v-220h-262c-48 1 -105 3 -140 68c-18 35 -18 72 -18 107v338c0 56 0 120 51 163c33 27 66 28 107 30z" />
  </g>

</svg>
