<?xml version="1.0" encoding="UTF-8" standalone="no"?>
<svg
   xmlns:dc="http://purl.org/dc/elements/1.1/"
   xmlns:cc="http://creativecommons.org/ns#"
   xmlns:rdf="http://www.w3.org/1999/02/22-rdf-syntax-ns#"
   xmlns:svg="http://www.w3.org/2000/svg"
   xmlns="http://www.w3.org/2000/svg"
   xmlns:sodipodi="http://sodipodi.sourceforge.net/DTD/sodipodi-0.dtd"
   xmlns:inkscape="http://www.inkscape.org/namespaces/inkscape"
   version="1.0"
   id="palavra"
   x="0px"
   y="0px"
   width="646.87"
   height="89.599998"
   sodipodi:docname="DECIDA-kern.svg"
   inkscape:version="0.92.3 (2405546, 2018-03-11)">
  <defs
     id="defs33" />
  <metadata
     id="metadata25">
    <rdf:RDF>
      <cc:Work
         rdf:about="">
        <dc:format>image/svg+xml</dc:format>
        <dc:type
           rdf:resource="http://purl.org/dc/dcmitype/StillImage" />
        <dc:title></dc:title>
      </cc:Work>
    </rdf:RDF>
  </metadata>
  <sodipodi:namedview
     pagecolor="#ffffff"
     bordercolor="#666666"
     borderopacity="1"
     objecttolerance="10"
     gridtolerance="10"
     guidetolerance="10"
     inkscape:pageopacity="0"
     inkscape:pageshadow="2"
     inkscape:window-width="1366"
     inkscape:window-height="704"
     id="namedview23"
     showgrid="false"
     inkscape:zoom="1.154703"
     inkscape:cx="180.78897"
     inkscape:cy="105.62149"
     inkscape:window-x="0"
     inkscape:window-y="27"
     inkscape:window-maximized="1"
     inkscape:current-layer="palavra" />
  <g
     id="g80"
     transform="translate(-1.21e-4,-0.10033)">
    <path
       d="m 2.1,28.5 c 1.475,0 4.425,0 5.9,0 0,12.95 0,38.85 0,51.8 -1.475,0 -4.425,0 -5.9,0 0,2.35 0,7.05 0,9.4 7.75,0 23.25,0 31,0 5.2,0 9.9,0 13.8,-3.3 3.4,-2.8 4.7,-6.7 4.7,-14.2 0,-11.56667 0,-26.025 0,-34.7 0,-5.2 0,-11.6 -5.2,-15.7 C 42.8,19 38.3,19.1 35,19.1 c -10.96667,0 -24.675,0 -32.9,0 0,2.35 0,7.05 0,9.4 z m 17,0 c 3.325,0 9.975,0 13.3,0 7.7,0.2 7.8,2.2 7.9,9.8 0,10.93333 0,24.6 0,32.8 -0.2,7.1 -0.3,9.3 -7.7,9.2 -4.5,0 -10.125,0 -13.5,0 0,-12.95 0,-38.85 0,-51.8 z"
       id="D"
       inkscape:connector-curvature="0" />
  </g>
  <g
     id="g77"
     transform="translate(58.397946,-0.10046)">
    <path
       d="m 38.6,39.8 c 2.6,0 7.8,0 10.4,0 0,-5.175 0,-15.525 0,-20.7 -11.7,0 -35.1,0 -46.8,0 0,2.35 0,7.05 0,9.4 1.45,0 4.35,0 5.8,0 0,12.95 0,38.85 0,51.8 -1.45,0 -4.35,0 -5.8,0 0,2.35 0,7.05 0,9.4 11.85,0 35.55,0 47.4,0 0,-5.6 0,-16.8 0,-22.4 -2.575,0 -7.725,0 -10.3,0 0,3.25 0,9.75 0,13 -5.025,0 -15.075,0 -20.1,0 0,-5.45 0,-16.35 0,-21.8 5.225,0 15.675,0 20.9,0 0,-2.375 0,-7.125 0,-9.5 -5.225,0 -15.675,0 -20.9,0 0,-5.125 0,-15.375 0,-20.5 4.85,0 14.55,0 19.4,0 0,2.825 0,8.475 0,11.3 z"
       id="E"
       inkscape:connector-curvature="0" />
  </g>
  <g
     id="g74"
     transform="translate(112.69449,-0.10063)">
    <path
       d="m 20.4,19.1 c -4.1,0.2 -7.4,0.3 -10.7,3 -5.1,4.3 -5.1,10.7 -5.1,16.3 0,11.26667 0,25.35 0,33.8 0,3.5 0,7.2 1.8,10.7 3.5,6.5 9.2,6.7 14,6.8 8.73333,0 19.65,0 26.2,0 0,-5.5 0,-16.5 0,-22 -2.7,0 -8.1,0 -10.8,0 0,3.15 0,9.45 0,12.6 -3.075,0 -9.225,0 -12.3,0 -4.5,0 -7,-0.5 -7.4,-4.7 0,-0.7 -0.1,-3.6 -0.1,-4.2 0,-11.33333 0,-25.5 0,-34 0.2,-5 0.2,-6.2 1.8,-7.6 1.4,-1.2 2.9,-1.2 5.9,-1.3 3.8,0 8.55,0 11.4,0 0,2.85 0,8.55 0,11.4 2.725,0 8.175,0 10.9,0 0,-5.2 0,-15.6 0,-20.8 -6.4,0 -19.2,0 -25.6,0 z"
       id="C"
       inkscape:connector-curvature="0" />
  </g>
  <g
     id="g71"
     transform="translate(166.99108,-0.10066)">
    <path
       d="m 25.1,28.5 c 0,-2.35 0,-7.05 0,-9.4 -5.75,0 -17.25,0 -23,0 0,2.35 0,7.05 0,9.4 1.5,0 4.5,0 6,0 0,12.95 0,38.85 0,51.8 -1.5,0 -4.5,0 -6,0 0,2.35 0,7.05 0,9.4 5.75,0 17.25,0 23,0 0,-2.35 0,-7.05 0,-9.4 -1.475,0 -4.425,0 -5.9,0 0,-12.95 0,-38.85 0,-51.8 1.475,0 4.425,0 5.9,0 z"
       id="I"
       inkscape:connector-curvature="0" />
  </g>
  <g
     id="g62"
     transform="translate(254.68566,-0.10052)">
    <path
       d="m 37.3,19.1 c -4.225,0 -12.675,0 -16.9,0 C 16.7,34.4 9.3,65 5.6,80.3 c -1.4,0 -4.2,0 -5.6,0 0,2.35 0,7.05 0,9.4 3.85,0 11.55,0 15.4,0 1.15,-5.625 3.45,-16.875 4.6,-22.5 4.025,0 12.075,0 16.1,0 1.1,5.625 3.3,16.875 4.4,22.5 3.925,0 11.775,0 15.7,0 0,-2.35 0,-7.05 0,-9.4 -1.375,0 -4.125,0 -5.5,0 C 47.35,65 40.65,34.4 37.3,19.1 Z m -8.9,7.3 c 1.5,7.9 4.5,23.7 6,31.6 -3.15,0 -9.45,0 -12.6,0 1.65,-7.9 4.95,-23.7 6.6,-31.6 z"
       id="A"
       inkscape:connector-curvature="0" />
  </g>
  <g
     transform="translate(198.43613,-0.10033)"
     id="g84">
    <path
       inkscape:connector-curvature="0"
       id="path82"
       d="m 2.1,28.5 c 1.475,0 4.425,0 5.9,0 0,12.95 0,38.85 0,51.8 -1.475,0 -4.425,0 -5.9,0 0,2.35 0,7.05 0,9.4 7.75,0 23.25,0 31,0 5.2,0 9.9,0 13.8,-3.3 3.4,-2.8 4.7,-6.7 4.7,-14.2 0,-11.56667 0,-26.025 0,-34.7 0,-5.2 0,-11.6 -5.2,-15.7 C 42.8,19 38.3,19.1 35,19.1 c -10.96667,0 -24.675,0 -32.9,0 0,2.35 0,7.05 0,9.4 z m 17,0 c 3.325,0 9.975,0 13.3,0 7.7,0.2 7.8,2.2 7.9,9.8 0,10.93333 0,24.6 0,32.8 -0.2,7.1 -0.3,9.3 -7.7,9.2 -4.5,0 -10.125,0 -13.5,0 0,-12.95 0,-38.85 0,-51.8 z" />
  </g>
  <g
     transform="translate(338.0836,-0.1)"
     id="g102">
    <path
       inkscape:connector-curvature="0"
       id="path100"
       d="m 2.1,28.5 c 1.475,0 4.425,0 5.9,0 0,12.95 0,38.85 0,51.8 -1.475,0 -4.425,0 -5.9,0 0,2.35 0,7.05 0,9.4 7.75,0 23.25,0 31,0 5.2,0 9.9,0 13.8,-3.3 3.4,-2.8 4.7,-6.7 4.7,-14.2 0,-11.56667 0,-26.025 0,-34.7 0,-5.2 0,-11.6 -5.2,-15.7 C 42.8,19 38.3,19.1 35,19.1 c -10.96667,0 -24.675,0 -32.9,0 0,2.35 0,7.05 0,9.4 z m 17,0 c 3.325,0 9.975,0 13.3,0 7.7,0.2 7.8,2.2 7.9,9.8 0,10.93333 0,24.6 0,32.8 -0.2,7.1 -0.3,9.3 -7.7,9.2 -4.5,0 -10.125,0 -13.5,0 0,-12.95 0,-38.85 0,-51.8 z" />
  </g>
  <g
     transform="translate(396.48167,-0.10013)"
     id="g106">
    <path
       inkscape:connector-curvature="0"
       id="path104"
       d="m 38.6,39.8 c 2.6,0 7.8,0 10.4,0 0,-5.175 0,-15.525 0,-20.7 -11.7,0 -35.1,0 -46.8,0 0,2.35 0,7.05 0,9.4 1.45,0 4.35,0 5.8,0 0,12.95 0,38.85 0,51.8 -1.45,0 -4.35,0 -5.8,0 0,2.35 0,7.05 0,9.4 11.85,0 35.55,0 47.4,0 0,-5.6 0,-16.8 0,-22.4 -2.575,0 -7.725,0 -10.3,0 0,3.25 0,9.75 0,13 -5.025,0 -15.075,0 -20.1,0 0,-5.45 0,-16.35 0,-21.8 5.225,0 15.675,0 20.9,0 0,-2.375 0,-7.125 0,-9.5 -5.225,0 -15.675,0 -20.9,0 0,-5.125 0,-15.375 0,-20.5 4.85,0 14.55,0 19.4,0 0,2.825 0,8.475 0,11.3 z" />
  </g>
  <g
     transform="translate(450.77821,-0.1003)"
     id="g110">
    <path
       inkscape:connector-curvature="0"
       id="path108"
       d="m 20.4,19.1 c -4.1,0.2 -7.4,0.3 -10.7,3 -5.1,4.3 -5.1,10.7 -5.1,16.3 0,11.26667 0,25.35 0,33.8 0,3.5 0,7.2 1.8,10.7 3.5,6.5 9.2,6.7 14,6.8 8.73333,0 19.65,0 26.2,0 0,-5.5 0,-16.5 0,-22 -2.7,0 -8.1,0 -10.8,0 0,3.15 0,9.45 0,12.6 -3.075,0 -9.225,0 -12.3,0 -4.5,0 -7,-0.5 -7.4,-4.7 0,-0.7 -0.1,-3.6 -0.1,-4.2 0,-11.33333 0,-25.5 0,-34 0.2,-5 0.2,-6.2 1.8,-7.6 1.4,-1.2 2.9,-1.2 5.9,-1.3 3.8,0 8.55,0 11.4,0 0,2.85 0,8.55 0,11.4 2.725,0 8.175,0 10.9,0 0,-5.2 0,-15.6 0,-20.8 -6.4,0 -19.2,0 -25.6,0 z" />
  </g>
  <g
     transform="translate(505.0748,-0.10033)"
     id="g114">
    <path
       inkscape:connector-curvature="0"
       id="path112"
       d="m 25.1,28.5 c 0,-2.35 0,-7.05 0,-9.4 -5.75,0 -17.25,0 -23,0 0,2.35 0,7.05 0,9.4 1.5,0 4.5,0 6,0 0,12.95 0,38.85 0,51.8 -1.5,0 -4.5,0 -6,0 0,2.35 0,7.05 0,9.4 5.75,0 17.25,0 23,0 0,-2.35 0,-7.05 0,-9.4 -1.475,0 -4.425,0 -5.9,0 0,-12.95 0,-38.85 0,-51.8 1.475,0 4.425,0 5.9,0 z" />
  </g>
  <g
     transform="translate(592.76938,-0.10019)"
     id="g118">
    <path
       inkscape:connector-curvature="0"
       id="path116"
       d="m 37.3,19.1 c -4.225,0 -12.675,0 -16.9,0 C 16.7,34.4 9.3,65 5.6,80.3 c -1.4,0 -4.2,0 -5.6,0 0,2.35 0,7.05 0,9.4 3.85,0 11.55,0 15.4,0 1.15,-5.625 3.45,-16.875 4.6,-22.5 4.025,0 12.075,0 16.1,0 1.1,5.625 3.3,16.875 4.4,22.5 3.925,0 11.775,0 15.7,0 0,-2.35 0,-7.05 0,-9.4 -1.375,0 -4.125,0 -5.5,0 C 47.35,65 40.65,34.4 37.3,19.1 Z m -8.9,7.3 c 1.5,7.9 4.5,23.7 6,31.6 -3.15,0 -9.45,0 -12.6,0 1.65,-7.9 4.95,-23.7 6.6,-31.6 z" />
  </g>
  <g
     id="g122"
     transform="translate(536.51985,-0.1)">
    <path
       d="m 2.1,28.5 c 1.475,0 4.425,0 5.9,0 0,12.95 0,38.85 0,51.8 -1.475,0 -4.425,0 -5.9,0 0,2.35 0,7.05 0,9.4 7.75,0 23.25,0 31,0 5.2,0 9.9,0 13.8,-3.3 3.4,-2.8 4.7,-6.7 4.7,-14.2 0,-11.56667 0,-26.025 0,-34.7 0,-5.2 0,-11.6 -5.2,-15.7 C 42.8,19 38.3,19.1 35,19.1 c -10.96667,0 -24.675,0 -32.9,0 0,2.35 0,7.05 0,9.4 z m 17,0 c 3.325,0 9.975,0 13.3,0 7.7,0.2 7.8,2.2 7.9,9.8 0,10.93333 0,24.6 0,32.8 -0.2,7.1 -0.3,9.3 -7.7,9.2 -4.5,0 -10.125,0 -13.5,0 0,-12.95 0,-38.85 0,-51.8 z"
       id="path120"
       inkscape:connector-curvature="0" />
  </g>
</svg>
