<?xml version="1.0" standalone="no"?>
<!DOCTYPE svg PUBLIC "-//W3C//DTD SVG 1.1//EN" "http://www.w3.org/Graphics/SVG/1.1/DTD/svg11.dtd" >
<svg xmlns="http://www.w3.org/2000/svg" xmlns:xlink="http://www.w3.org/1999/xlink" version="1.1" viewBox="-1000 -1000 13000 10000">
<defs>
<path id="A" d="M283,800q34,-29,83,-58.5q49,-29.5,114,-60.5v72q-68,58,-124,123q-56,65,-98,147h-36q-42,-82,-98,-147q-56,-65,-124,-123v-72q65,31,114,60.5q49,29.5,83,58.5v-989h86z"/>
<g id="S">
<path id="D" d="M21,188v-94h329c33,0,78,-1,114,27c52,41,52,105,52,157v347c0,75,-13,114,-47,142c-39,33,-86,33,-138,33h-310v-94h59v-518zm170,0v518h135c74,1,75,-21,77,-92v-328c-1,-76,-2,-96,-79,-98z"/>
<path d="M969,301v-113h-194v205h209v95h-209v218h201v-130h103v224h-474v-94h58v-518h-58v-94h468v207z"/>
<path d="M1329,94h256v208h-109v-114h-114c-30,1,-45,1,-59,13c-16,14,-16,26,-18,76v340c0,6,1,35,1,42c4,42,29,47,74,47h123v-126h108v220h-262c-48,-1,-105,-3,-140,-68c-18,-35,-18,-72,-18,-107v-338c0,-56,0,-120,51,-163c33,-27,66,-28,107,-30z"/>
<path d="M1918,188h-59v518h59v94h-230v-94h60v-518h-60v-94h230z"/>
<use xlink:href="#D" x="1980"/>
<path d="M2915,94l134,612h55v94h-157l-44,-225h-161l-46,225h-154v-94h56l148,-612zm-89,73l-66,316h126z"/>
</g>
</defs>
<use xlink:href="#S"/>
<use xlink:href="#S" x="3375"/>
<use xlink:href="#A" x="6750"/>
<use xlink:href="#S" x="7480"/>
<use xlink:href="#S" y="1000"/>
<use xlink:href="#S" y="1000" x="8064"/>
<use xlink:href="#S" y="2000"/>
<use xlink:href="#S" y="2000" x="4689"/>
<use xlink:href="#S" y="2000" x="8064"/>
<use xlink:href="#S" y="3000"/>
<use xlink:href="#S" y="3000" x="8064"/>
<use xlink:href="#S" y="4000"/>
<use xlink:href="#S" y="4000" x="3375"/>
<use xlink:href="#S" y="4000" x="8064"/>
<use xlink:href="#S" y="5000"/>
<use xlink:href="#S" y="5000" x="3375"/>
<use xlink:href="#S" y="5000" x="8064"/>
<use xlink:href="#S" y="6000"/>
<use xlink:href="#S" y="6000" x="8064"/>
<use xlink:href="#S" y="7000"/>
<use xlink:href="#A" y="7000" x="3375"/>
<use xlink:href="#S" y="7000" x="4105"/>
<use xlink:href="#S" y="7000" x="7480"/>
</svg>